# Blender 4.1.1
# www.blender.org
mtllib betterNeedle.mtl
o Circle
v -0.001584 -0.000026 0.024358
v 0.000000 0.000000 -11.551003
v -0.866025 0.000000 5.775502
v 0.866025 0.000000 5.775502
v 0.014303 0.000157 0.022527
v -0.866025 0.251387 5.775502
v 0.000000 0.251387 -11.551003
v -0.001584 0.251361 0.024358
v 0.866025 0.251387 5.775502
vn -0.0000 -1.0000 -0.0000
vn -0.0000 1.0000 -0.0000
vn 0.9988 -0.0000 -0.0499
vn -0.0000 -0.0000 1.0000
vn -0.9988 -0.0000 -0.0499
vt 0.500000 0.500000
vt 0.066987 0.250000
vt 0.500000 1.000000
vt 0.933013 0.250000
s 0
f 1/1/1 3/2/1 2/3/1
f 1/1/1 4/4/1 3/2/1
f 1/1/1 2/3/1 4/4/1
f 8/1/2 7/3/2 6/2/2
f 8/1/2 6/2/2 9/4/2
f 8/1/2 9/4/2 7/3/2
f 4/4/3 2/3/3 7/3/3 9/4/3
f 3/2/4 4/4/4 9/4/4 6/2/4
f 2/3/5 3/2/5 6/2/5 7/3/5
l 1 5
