ply
format ascii 1.0
comment Exported by Aspose.3D 24.9.1
element vertex 256
property float x
property float y
property float z
property float nx
property float ny
property float nz
element face 508
property list uchar int vertex_index
end_header
15.239999771118164 -4.825999736785889 -7.619999885559082 0.0010807690841536368 -0.039870065066122236 -0.9936761952215625
0.2540000081062317 -4.825999736785889 -7.619999885559082 -0.5 -0.05150247116883595 -0.4918428659439087
0.2540000081062317 -4.975297451019287 -7.571490287780762 -0.4 -0.3018072247505188 -0.4712209939956665
15.239999771118164 -4.975297451019287 -7.571490287780762 0.018876122310757637 -0.6966560930013657 -0.6194809128840764
0.2540000081062317 -5.079999923706055 -7.366000175476074 -0.2 -0.7564025878906251 -0.1815962314605713
15.239999771118164 -5.079999923706055 -7.366000175476074 0.03130595311522484 -0.9556083917617798 -0.18149046301841737
15.239999771118164 5.079999923706055 -7.366000175476074 0.021520504461867467 0.9372119562966482 -0.2592720772538866
15.239999771118164 4.975297451019287 -7.571490287780762 0.013626042753458023 0.5028245250384012 -0.7852357278267542
15.777925491333008 4.946132183074951 -7.571490287780762 0.059594726810852684 0.596523364384969 -0.7021927237510681
15.239999771118164 4.825999736785889 -7.619999885559082 0.0033504046499729157 0.12359725832939149 -0.9803961873054505
15.761781692504883 4.7977094650268555 -7.619999885559082 0.016712605953216553 0.18465811610221863 -0.9705543398857117
16.277446746826172 4.713170528411865 -7.619999885559082 0.036579787731170654 0.18176875114440919 -0.9705543160438538
16.309541702270508 4.858977794647217 -7.571490287780762 0.12374101765453815 0.5865832368532816 -0.702192743619283
16.780948638916016 4.573374271392822 -7.619999885559082 0.05601784586906433 0.1767480492591858 -0.9705543994903565
16.82862091064453 4.7148566246032715 -7.571490287780762 0.18643637374043465 0.5697659254074097 -0.702192485332489
17.266386032104492 4.379958629608154 -7.619999885559082 0.07479949444532395 0.16965564489364626 -0.9705542922019958
17.329072952270508 4.515458106994629 -7.571490287780762 0.24694610759615898 0.5462688754002253 -0.7021925350030263
17.72806167602539 4.13519287109375 -7.619999885559082 0.09270394742488862 0.16057382225990297 -0.9705543279647828
17.805034637451172 4.263119220733643 -7.571490287780762 0.30456026395161945 0.516366774837176 -0.7021927585204442
18.16057014465332 3.841945171356201 -7.619999885559082 0.10952156484127046 0.14960936605930328 -0.9705543518066406
18.25092124938965 3.9607999324798584 -7.571490287780762 0.35860395183165866 0.48041102290153503 -0.7021928628285725
18.558837890625 3.5036542415618896 -7.619999885559082 0.1250549077987671 0.13689082264900207 -0.9705544471740724
18.661510467529297 3.612043619155884 -7.571490287780762 0.4084438681602478 0.4388229822119077 -0.7021918147802353
18.918193817138672 3.12428617477417 -7.619999885559082 0.13912267982959747 0.12256757915019989 -0.9705543637275696
19.031982421875 3.2209393978118896 -7.571490287780762 0.45349476734797156 0.39209026594956714 -0.7021915763616562
19.234426498413086 2.7082889080047607 -7.619999885559082 0.15155833661556245 0.1068072259426117 -0.9705545544624329
19.357999801635742 2.7920725345611572 -7.571490287780762 0.493228775759538 0.34076066563526786 -0.702191099524498
19.503829956054688 2.2605392932891846 -7.619999885559082 0.16221891641616823 0.0897951602935791 -0.9705541610717774
19.63573455810547 2.3304712772369385 -7.571490287780762 0.527180939912796 0.28543564925591147 -0.7021921922763188
19.723241806030273 1.78628671169281 -7.619999885559082 0.17097758054733278 0.07173008024692536 -0.9705538272857667
19.861934661865234 1.8415474891662598 -7.571490287780762 0.5549504409233729 0.22676410898566246 -0.7021939655145009
19.890092849731445 1.291091799736023 -7.619999885559082 0.17772969007492068 0.052823619544506074 -0.9705541372299195
20.03394889831543 1.3310331106185913 -7.571490287780762 0.5762138366699219 0.1654343468447526 -0.7021938264369965
20.002424240112305 0.7807599306106567 -7.619999885559082 0.1823981046676636 0.033297831565141676 -0.9705544590950013
20.149755477905273 0.8049135804176331 -7.571490287780762 0.5907232463359833 0.10216433554887772 -0.7021925697724024
20.058921813964844 0.2612743675708771 -7.619999885559082 0.18492926955223085 0.01338186264038086 -0.9705543637275696
20.20800018310547 0.26935717463493347 -7.571490287780762 0.5983070383469263 0.037696851417422295 -0.7021918445825577
20.058921813964844 -0.2612743675708771 -7.619999885559082 0.1852922797203064 -0.0066909827291965485 -0.9705542802810669
20.20800018310547 -0.26935717463493347 -7.571490287780762 0.5988753437995911 -0.02721211810906728 -0.7021918445825577
20.002424240112305 -0.7807599306106567 -7.619999885559082 0.18348221182823182 -0.026685246825218202 -0.9705544471740724
20.149755477905273 -0.8049135804176331 -7.571490287780762 0.5924222419659296 -0.09180236048996449 -0.7021920631329218
19.890092849731445 -1.291091799736023 -7.619999885559082 0.17952162623405457 -0.04636680185794831 -0.9705543875694276
20.03394889831543 -1.3310331106185913 -7.571490287780762 0.5790240218242009 -0.15531694516539574 -0.7021927336851755
19.723241806030273 -1.78628671169281 -7.619999885559082 0.17345731258392336 -0.06550519913434982 -0.9705539703369142
19.861934661865234 -1.8415474891662598 -7.571490287780762 0.5588373293479283 -0.2170098821322123 -0.7021937519311905
19.503829956054688 -2.2605392932891846 -7.619999885559082 0.1653584361076355 -0.08387539982795716 -0.9705538630485535
19.63573455810547 -2.3304712772369385 -7.571490287780762 0.5320981244246165 -0.2761578063170115 -0.7021937817335129
19.234426498413086 -2.7082889080047607 -7.619999885559082 0.15531916916370392 -0.1012611359357834 -0.9705544233322144
19.357999801635742 -2.7920725345611572 -7.571490287780762 0.4991208265225092 -0.33206941684087116 -0.7021918495496113
18.918193817138672 -3.12428617477417 -7.619999885559082 0.1434604287147522 -0.1174605518579483 -0.9705544114112854
19.031982421875 -3.2209393978118896 -7.571490287780762 0.4602925578753153 -0.38408754765987396 -0.7021914472182591
18.558837890625 -3.5036542415618896 -7.619999885559082 0.12991977632045745 -0.13228265047073365 -0.9705544233322144
18.661510467529297 -3.612043619155884 -7.571490287780762 0.41606705635786057 -0.43160211543242133 -0.7021914422512054
18.16057014465332 -3.841945171356201 -7.619999885559082 0.11485587656497956 -0.1455542266368866 -0.9705543756484986
18.25092124938965 -3.9607999324798584 -7.571490287780762 0.36696341882149375 -0.4740566958983739 -0.7021923661231995
17.72806167602539 -4.13519287109375 -7.619999885559082 0.0984455317258835 -0.15711904764175416 -0.9705543756484986
17.805034637451172 -4.263119220733643 -7.571490287780762 0.31355762481689453 -0.5109533766905466 -0.7021927386522293
17.266386032104492 -4.379958629608154 -7.619999885559082 0.05777209571429661 -0.1191730030945369 -0.9789673260280064
17.329072952270508 -4.515458106994629 -7.571490287780762 0.25647570192813873 -0.5418598105510075 -0.7021927187840143
16.780948638916016 -4.573374271392822 -7.619999885559082 0.07795991003513336 -0.21826068311929703 -0.9631929695606232
16.82862091064453 -4.7148566246032715 -7.571490287780762 0.19638700410723686 -0.5664130946000416 -0.7021925151348114
16.277446746826172 -4.713170528411865 -7.619999885559082 0.04312383979558945 -0.1803282916545868 -0.9705543160438538
16.309541702270508 -4.858977794647217 -7.571490287780762 0.13399576085309187 -0.5843260288238525 -0.702192688981692
15.761781692504883 -4.7977094650268555 -7.619999885559082 0.023374156653881074 -0.18393362760543824 -0.9705543398857117
15.777925491333008 -4.946132183074951 -7.571490287780762 0.070033498108387 -0.5953880498806635 -0.7021927883227665
15.789244651794434 5.050220966339111 -7.366000175476074 0.10111618476609388 0.9388218621412913 -0.2267308384180069
16.332048416137695 4.961232662200928 -7.366000175476074 0.20202800383170444 0.9223859012126923 -0.2267307589451472
16.862051010131836 4.814078330993652 -7.366000175476074 0.30057126780351 0.8951358397801716 -0.22673051059246063
17.373037338256836 4.610483169555664 -7.366000175476074 0.3955901612838109 0.8573910593986511 -0.22673080364863077
17.8590145111084 4.352834701538086 -7.366000175476074 0.48597155014673865 0.8095941245555878 -0.22673079868157703
18.314285278320312 4.044152736663818 -7.366000175476074 0.5706556439399719 0.7523054579893748 -0.22673041621843973
18.73351287841797 3.6880571842193604 -7.366000175476074 0.6486497521400452 0.6861966451009114 -0.2267294079065323
19.11178207397461 3.288722276687622 -7.366000175476074 0.7190377215544382 0.6120433509349823 -0.2267294923464457
19.444660186767578 2.850830316543579 -7.366000175476074 0.7809958855311075 0.5307141592105229 -0.22672970096270242
19.728240966796875 2.3795149326324463 -7.366000175476074 0.8337967693805695 0.4431622078021367 -0.2267319659392039
19.95920181274414 1.880301833152771 -7.366000175476074 0.8768233060836792 0.35041485230127967 -0.22673223416010538
20.13483428955078 1.3590439558029175 -7.366000175476074 0.9095704853534698 0.25355933854977286 -0.2267309675614039
20.25307846069336 0.8218525052070618 -7.366000175476074 0.9316537578900654 0.15373033533493677 -0.22673001885414124
20.312549591064453 0.2750256657600403 -7.366000175476074 0.9428136348724365 0.05209992453455925 -0.226729874809583
20.312549591064453 -0.2750256657600403 -7.366000175476074 0.9429198205471039 -0.05014079188307126 -0.22672994434833527
20.25307846069336 -0.8218525052070618 -7.366000175476074 0.9319708943367004 -0.15179424608747163 -0.22673052052656809
20.13483428955078 -1.3590439558029175 -7.366000175476074 0.9100949565569559 -0.2516686295469602 -0.2267318218946457
19.95920181274414 -1.880301833152771 -7.366000175476074 0.8775496284166971 -0.34859177966912586 -0.22673232356707254
19.728240966796875 -2.3795149326324463 -7.366000175476074 0.8347165882587433 -0.44142871101697284 -0.22673066457112628
19.444660186767578 -2.850830316543579 -7.366000175476074 0.7820968826611836 -0.5290908912817637 -0.22672908504803974
19.11178207397461 -3.288722276687622 -7.366000175476074 0.7203080554803212 -0.6105477412541707 -0.22672957181930542
18.73351287841797 -3.6880571842193604 -7.366000175476074 0.650073766708374 -0.684847484032313 -0.22672978043556213
18.314285278320312 -4.044152736663818 -7.366000175476074 0.572217732667923 -0.7511176764965057 -0.22673087815443674
17.8590145111084 -4.352834701538086 -7.366000175476074 0.487652709086736 -0.8085826138655344 -0.22673077881336212
17.373037338256836 -4.610483169555664 -7.366000175476074 0.39737099409103394 -0.8565672536691029 -0.22673065960407257
16.862051010131836 -4.814078330993652 -7.366000175476074 0.30243051548798877 -0.8945094048976898 -0.2267305056254069
16.332048416137695 -4.961232662200928 -7.366000175476074 0.203944298128287 -0.9219640692075093 -0.22673081358273822
15.789244651794434 -5.050220966339111 -7.366000175476074 0.10306669150789578 -0.9386097689469655 -0.22673077384630838
0.2540000081062317 4.825999736785889 -7.619999885559082 -0.5 0.1030049423376719 -0.4836857318878174
0.2540000081062317 4.975297451019287 -7.571490287780762 -0.25 0.5227569416165352 -0.46475958824157715
0.2540000081062317 5.079999923706055 -7.366000175476074 -0.5 0.4727516174316406 -0.11349764466285706
-0.2540000081062317 -4.825999736785889 -7.619999885559082 0.5 -0.1030049423376719 -0.4836857318878174
-15.239999771118164 -4.825999736785889 -7.619999885559082 -0.0027920038749774294 -0.10299771527449289 -0.9836634894212086
-15.239999771118164 -4.975297451019287 -7.571490287780762 -0.013626042753458023 -0.5028245250384012 -0.7852357278267542
-0.2540000081062317 -4.975297451019287 -7.571490287780762 0.25 -0.5227569416165352 -0.46475958824157715
-15.239999771118164 -5.079999923706055 -7.366000175476074 -0.021520504461867467 -0.9372119562966482 -0.2592720772538866
-0.2540000081062317 -5.079999923706055 -7.366000175476074 0.5 -0.4727516174316406 -0.11349764466285706
-15.239999771118164 4.825999736785889 -7.619999885559082 -0.005583973601460457 0.2059953361749649 -0.9673270086447397
-0.2540000081062317 4.825999736785889 -7.619999885559082 0.5 0.05150247116883595 -0.4918428659439087
-0.2540000081062317 4.975297451019287 -7.571490287780762 0.4 0.3018072247505188 -0.4712209939956665
-15.239999771118164 4.975297451019287 -7.571490287780762 -0.018876122310757637 0.6966560930013657 -0.6194809128840764
-0.2540000081062317 5.079999923706055 -7.366000175476074 0.2 0.7564025878906251 -0.1815962314605713
-15.239999771118164 5.079999923706055 -7.366000175476074 -0.03130595311522484 0.9556083917617798 -0.18149046301841737
0.2540000081062317 -5.079999923706055 -7.111999988555908 -0.42857142857142855 -0.42857142857142855 -0.14285714285714285
0.2540000081062317 5.079999923706055 -7.111999988555908 -0.375 0.375 -0.25
-0.2540000081062317 -5.079999923706055 -7.111999988555908 0.375 -0.375 -0.25
-0.2540000081062317 5.079999923706055 -7.111999988555908 0.42857142857142855 0.42857142857142855 -0.14285714285714285
-16.780948638916016 4.573374271392822 -7.619999885559082 -0.062367928028106694 0.17460854649543764 -0.9705543756484986
-17.266386032104492 4.379958629608154 -7.619999885559082 -0.08088093400001527 0.1668422043323517 -0.970554256439209
-19.503829956054688 -2.2605392932891846 -7.619999885559082 -0.050693411380052567 -0.02806098759174347 -0.9907981753349304
-19.234426498413086 -2.7082889080047607 -7.619999885559082 -0.15155833661556245 -0.1068072259426117 -0.9705545544624329
-18.918193817138672 -3.12428617477417 -7.619999885559082 -0.13912267982959747 -0.12256757915019989 -0.9705543637275696
-15.761781692504883 4.7977094650268555 -7.619999885559082 -0.007791385551293691 0.061311209201812746 -0.9901847799619039
-16.277446746826172 4.713170528411865 -7.619999885559082 -0.04312383979558945 0.1803282916545868 -0.9705543160438538
-15.761781692504883 -4.7977094650268555 -7.619999885559082 -0.016712605953216553 -0.18465811610221863 -0.9705543398857117
-16.277446746826172 -4.713170528411865 -7.619999885559082 -0.036579787731170654 -0.18176875114440919 -0.9705543160438538
-17.72806167602539 4.13519287109375 -7.619999885559082 -0.0984455317258835 0.15711904764175416 -0.9705543756484986
-18.16057014465332 3.841945171356201 -7.619999885559082 -0.11485587656497956 0.1455542266368866 -0.9705543756484986
-18.558837890625 3.5036542415618896 -7.619999885559082 -0.12991977632045745 0.13228265047073365 -0.9705544233322144
-18.558837890625 -3.5036542415618896 -7.619999885559082 -0.1250549077987671 -0.13689082264900207 -0.9705544471740724
-18.16057014465332 -3.841945171356201 -7.619999885559082 -0.10952156484127046 -0.14960936605930328 -0.9705543518066406
-17.72806167602539 -4.13519287109375 -7.619999885559082 -0.09270394742488862 -0.16057382225990297 -0.9705543279647828
-19.890092849731445 1.291091799736023 -7.619999885559082 -0.1282297330243247 0.033119144184248786 -0.9789674196924482
-19.723241806030273 1.78628671169281 -7.619999885559082 -0.17345731258392336 0.06550519913434982 -0.9705539703369142
-19.503829956054688 2.2605392932891846 -7.619999885559082 -0.1653584361076355 0.08387539982795716 -0.9705538630485535
-18.918193817138672 3.12428617477417 -7.619999885559082 -0.1434604287147522 0.1174605518579483 -0.9705544114112854
-19.234426498413086 2.7082889080047607 -7.619999885559082 -0.15531916916370392 0.1012611359357834 -0.9705544233322144
-20.002424240112305 0.7807599306106567 -7.619999885559082 -0.18348221182823182 0.026685246825218202 -0.9705544471740724
-19.890092849731445 -1.291091799736023 -7.619999885559082 -0.11108105629682541 -0.033014762215316296 -0.9815963357686996
-19.723241806030273 -1.78628671169281 -7.619999885559082 -0.17097758054733278 -0.07173008024692536 -0.9705538272857667
-20.058921813964844 0.2612743675708771 -7.619999885559082 -0.1852922797203064 0.0066909827291965485 -0.9705542802810669
-20.058921813964844 -0.2612743675708771 -7.619999885559082 -0.18492926955223085 -0.01338186264038086 -0.9705543637275696
-20.002424240112305 -0.7807599306106567 -7.619999885559082 -0.22799763083457947 -0.0416222894564271 -0.9631930738687515
-17.266386032104492 -4.379958629608154 -7.619999885559082 -0.07479949444532395 -0.16965564489364626 -0.9705542922019958
-16.780948638916016 -4.573374271392822 -7.619999885559082 -0.05601784586906433 -0.1767480492591858 -0.9705543994903565
-15.239999771118164 5.079999923706055 0 -0.007734092750719615 0.5712190611021859 0.42857142857142855
-15.789244651794434 5.050220966339111 0 -0.05401187390089035 0.596778678894043 0.4
-15.789244651794434 5.050220966339111 -7.366000175476074 -0.10306669150789578 0.9386097689469655 -0.22673077384630838
-16.332048416137695 4.961232662200928 0 -0.11821851134300232 0.5874406099319458 0.4
-16.332048416137695 4.961232662200928 -7.366000175476074 -0.203944298128287 0.9219640692075093 -0.22673081358273822
-16.862051010131836 4.814078330993652 0 -0.18103899359703066 0.5712153315544128 0.4
-16.862051010131836 4.814078330993652 -7.366000175476074 -0.30243051548798877 0.8945094048976898 -0.2267305056254069
-17.373037338256836 4.610483169555664 0 -0.24173687100410463 0.548293137550354 0.4
-17.373037338256836 4.610483169555664 -7.366000175476074 -0.39737099409103394 0.8565672536691029 -0.22673065960407257
-17.8590145111084 4.352834701538086 0 -0.29960064888000487 0.5189427018165589 0.4
-17.8590145111084 4.352834701538086 -7.366000175476074 -0.487652709086736 0.8085826138655344 -0.22673077881336212
-18.314285278320312 4.044152736663818 0 -0.35395222902297974 0.48350789546966555 0.4
-18.314285278320312 4.044152736663818 -7.366000175476074 -0.572217732667923 0.7511176764965057 -0.22673087815443674
-18.73351287841797 3.6880571842193604 0 -0.2020769715309143 0.2212022125720978 0.7000000000000001
-18.73351287841797 3.6880571842193604 -7.366000175476074 -0.650073766708374 0.684847484032313 -0.22672978043556213
-19.11178207397461 3.288722276687622 0 -0.4496168971061707 0.39611454010009767 0.4
-19.11178207397461 3.288722276687622 -7.366000175476074 -0.7203080554803212 0.6105477412541707 -0.22672957181930542
-19.444660186767578 2.850830316543579 0 -0.48980842828750615 0.3451808333396912 0.4
-19.444660186767578 2.850830316543579 -7.366000175476074 -0.7820968826611836 0.5290908912817637 -0.22672908504803974
-19.728240966796875 2.3795149326324463 0 -0.5242576003074646 0.2901999413967133 0.4
-19.728240966796875 2.3795149326324463 -7.366000175476074 -0.8347165882587433 0.44142871101697284 -0.22673066457112628
-19.95920181274414 1.880301833152771 0 -0.5525607705116272 0.2318160355091095 0.4
-19.95920181274414 1.880301833152771 -7.366000175476074 -0.8775496284166971 0.34859177966912586 -0.22673232356707254
-20.13483428955078 1.3590439558029175 0 -0.5743853330612183 0.17071478962898257 0.4
-20.13483428955078 1.3590439558029175 -7.366000175476074 -0.9100949565569559 0.2516686295469602 -0.2267318218946457
-20.25307846069336 0.8218525052070618 0 -0.5894758820533753 0.10761157125234605 0.4
-20.25307846069336 0.8218525052070618 -7.366000175476074 -0.9319708943367004 0.15179424608747163 -0.22673052052656809
-20.312549591064453 0.2750256657600403 0 -0.5976552248001099 0.04324726760387421 0.4
-20.312549591064453 0.2750256657600403 -7.366000175476074 -0.9429198205471039 0.05014079188307126 -0.22672994434833527
-20.312549591064453 -0.2750256657600403 0 -0.2994138062000275 -0.010811816900968552 0.7000000000000001
-20.312549591064453 -0.2750256657600403 -7.366000175476074 -0.9428136348724365 -0.05209992453455925 -0.226729874809583
-20.25307846069336 -0.8218525052070618 0 -0.5929793596267701 -0.08624123632907868 0.4
-20.25307846069336 -0.8218525052070618 -7.366000175476074 -0.9316537578900654 -0.15373033533493677 -0.22673001885414124
-20.13483428955078 -1.3590439558029175 0 -0.5801788687705994 -0.14984834790229798 0.4
-20.13483428955078 -1.3590439558029175 -7.366000175476074 -0.9095704853534698 -0.25355933854977286 -0.2267309675614039
-19.95920181274414 -1.880301833152771 0 -0.7007203549146652 -0.2646232917904854 0.25
-19.95920181274414 -1.880301833152771 -7.366000175476074 -0.8768233060836792 -0.35041485230127967 -0.22673223416010538
-19.728240966796875 -2.3795149326324463 0 -0.38171530621392386 -0.1936190639223371 0.5714285714285714
-19.728240966796875 -2.3795149326324463 -7.366000175476074 -0.8337967693805695 -0.4431622078021367 -0.2267319659392039
-19.444660186767578 -2.850830316543579 0 -0.501961100101471 -0.3272570133209229 0.4
-19.444660186767578 -2.850830316543579 -7.366000175476074 -0.7809958855311075 -0.5307141592105229 -0.22672970096270242
-19.11178207397461 -3.288722276687622 0 -0.463636326789856 -0.3796095967292786 0.4
-19.11178207397461 -3.288722276687622 -7.366000175476074 -0.7190377215544382 -0.6120433509349823 -0.2267294923464457
-18.73351287841797 -3.6880571842193604 0 -0.419875705242157 -0.4275119543075562 0.4
-18.73351287841797 -3.6880571842193604 -7.366000175476074 -0.6486497521400452 -0.6861966451009114 -0.2267294079065323
-18.314285278320312 -4.044152736663818 0 -0.37119220495224003 -0.4704023957252503 0.4
-18.314285278320312 -4.044152736663818 -7.366000175476074 -0.5706556439399719 -0.7523054579893748 -0.22673041621843973
-17.8590145111084 -4.352834701538086 0 -0.12236786576417777 -0.19529924942896917 0.7692307692307693
-17.8590145111084 -4.352834701538086 -7.366000175476074 -0.48597155014673865 -0.8095941245555878 -0.22673079868157703
-17.373037338256836 -4.610483169555664 0 -0.2613908588886261 -0.5392002463340759 0.4
-17.373037338256836 -4.610483169555664 -7.366000175476074 -0.3955901612838109 -0.8573910593986511 -0.22673080364863077
-16.862051010131836 -4.814078330993652 0 -0.2015609383583069 -0.5643006801605225 0.4
-16.862051010131836 -4.814078330993652 -7.366000175476074 -0.30057126780351 -0.8951358397801716 -0.22673051059246063
-16.332048416137695 -4.961232662200928 0 -0.13936778008937836 -0.5827852964401246 0.4
-16.332048416137695 -4.961232662200928 -7.366000175476074 -0.20202800383170444 -0.9223859012126923 -0.2267307589451472
-15.789244651794434 -5.050220966339111 0 -0.07554055824875833 -0.594437301158905 0.4
-15.789244651794434 -5.050220966339111 -7.366000175476074 -0.10111618476609388 -0.9388218621412913 -0.2267308384180069
-15.239999771118164 -5.079999923706055 0 -0.007734092750719615 -0.35693334681647165 0.6428571428571428
15.239999771118164 -5.079999923706055 0 0.007734092750719615 -0.5712190611021859 0.42857142857142855
15.789244651794434 -5.050220966339111 0 0.05401187390089035 -0.596778678894043 0.4
16.332048416137695 -4.961232662200928 0 0.11821851134300232 -0.5874406099319458 0.4
16.862051010131836 -4.814078330993652 0 0.18103899359703066 -0.5712153315544128 0.4
17.373037338256836 -4.610483169555664 0 0.24173687100410463 -0.548293137550354 0.4
17.8590145111084 -4.352834701538086 0 0.29960064888000487 -0.5189427018165589 0.4
18.314285278320312 -4.044152736663818 0 0.35395222902297974 -0.48350789546966555 0.4
18.73351287841797 -3.6880571842193604 0 0.4041539430618286 -0.4424044251441956 0.4
19.11178207397461 -3.288722276687622 0 0.4496168971061707 -0.39611454010009767 0.4
19.444660186767578 -2.850830316543579 0 0.48980842828750615 -0.3451808333396912 0.4
19.728240966796875 -2.3795149326324463 0 0.5242576003074646 -0.2901999413967133 0.4
19.95920181274414 -1.880301833152771 0 0.5525607705116272 -0.2318160355091095 0.4
20.13483428955078 -1.3590439558029175 0 0.5743853330612183 -0.17071478962898257 0.4
20.25307846069336 -0.8218525052070618 0 0.5894758820533753 -0.10761157125234605 0.4
20.312549591064453 -0.2750256657600403 0 0.5976552248001099 -0.04324726760387421 0.4
20.312549591064453 0.2750256657600403 0 0.598827612400055 0.021623633801937103 0.4
20.25307846069336 0.8218525052070618 0 0.5929793596267701 0.08624123632907868 0.4
20.13483428955078 1.3590439558029175 0 0.5801788687705994 0.14984834790229798 0.4
19.95920181274414 1.880301833152771 0 0.5605762839317322 0.21169863343238832 0.4
19.728240966796875 2.3795149326324463 0 0.5344014286994935 0.271066689491272 0.4
19.444660186767578 2.850830316543579 0 0.501961100101471 0.3272570133209229 0.4
19.11178207397461 3.288722276687622 0 0.463636326789856 0.3796095967292786 0.4
18.73351287841797 3.6880571842193604 0 0.419875705242157 0.4275119543075562 0.4
18.314285278320312 4.044152736663818 0 0.37119220495224003 0.4704023957252503 0.4
17.8590145111084 4.352834701538086 0 0.2272546078477587 0.36269860608237126 0.5714285714285714
17.373037338256836 4.610483169555664 0 0.2613908588886261 0.5392002463340759 0.4
16.862051010131836 4.814078330993652 0 0.2519511729478836 0.7053758502006531 0.25
16.332048416137695 4.961232662200928 0 0.11613981674114862 0.48565441370010376 0.5
15.789244651794434 5.050220966339111 0 0.07554055824875833 0.594437301158905 0.4
15.239999771118164 5.079999923706055 0 0.0034928160809701487 0.1611957050138904 0.8387096774193548
-15.777925491333008 -4.946132183074951 -7.571490287780762 -0.059594726810852684 -0.596523364384969 -0.7021927237510681
-16.309541702270508 -4.858977794647217 -7.571490287780762 -0.12374101765453815 -0.5865832368532816 -0.702192743619283
-16.82862091064453 -4.7148566246032715 -7.571490287780762 -0.18643637374043465 -0.5697659254074097 -0.702192485332489
-17.329072952270508 -4.515458106994629 -7.571490287780762 -0.24694610759615898 -0.5462688754002253 -0.7021925350030263
-17.805034637451172 -4.263119220733643 -7.571490287780762 -0.30456026395161945 -0.516366774837176 -0.7021927585204442
-18.25092124938965 -3.9607999324798584 -7.571490287780762 -0.35860395183165866 -0.48041102290153503 -0.7021928628285725
-18.661510467529297 -3.612043619155884 -7.571490287780762 -0.4084438681602478 -0.4388229822119077 -0.7021918147802353
-19.031982421875 -3.2209393978118896 -7.571490287780762 -0.45349476734797156 -0.39209026594956714 -0.7021915763616562
-19.357999801635742 -2.7920725345611572 -7.571490287780762 -0.493228775759538 -0.34076066563526786 -0.702191099524498
-19.63573455810547 -2.3304712772369385 -7.571490287780762 -0.527180939912796 -0.28543564925591147 -0.7021921922763188
-19.861934661865234 -1.8415474891662598 -7.571490287780762 -0.5549504409233729 -0.22676410898566246 -0.7021939655145009
-20.03394889831543 -1.3310331106185913 -7.571490287780762 -0.5762138366699219 -0.1654343468447526 -0.7021938264369965
-20.149755477905273 -0.8049135804176331 -7.571490287780762 -0.5907232463359833 -0.10216433554887772 -0.7021925697724024
-20.20800018310547 -0.26935717463493347 -7.571490287780762 -0.5983070383469263 -0.037696851417422295 -0.7021918445825577
-20.20800018310547 0.26935717463493347 -7.571490287780762 -0.5988753437995911 0.02721211810906728 -0.7021918445825577
-20.149755477905273 0.8049135804176331 -7.571490287780762 -0.5924222419659296 0.09180236048996449 -0.7021920631329218
-20.03394889831543 1.3310331106185913 -7.571490287780762 -0.5790240218242009 0.15531694516539574 -0.7021927336851755
-19.861934661865234 1.8415474891662598 -7.571490287780762 -0.5588373293479283 0.2170098821322123 -0.7021937519311905
-19.63573455810547 2.3304712772369385 -7.571490287780762 -0.5320981244246165 0.2761578063170115 -0.7021937817335129
-19.357999801635742 2.7920725345611572 -7.571490287780762 -0.4991208265225092 0.33206941684087116 -0.7021918495496113
-19.031982421875 3.2209393978118896 -7.571490287780762 -0.4602925578753153 0.38408754765987396 -0.7021914472182591
-18.661510467529297 3.612043619155884 -7.571490287780762 -0.41606705635786057 0.43160211543242133 -0.7021914422512054
-18.25092124938965 3.9607999324798584 -7.571490287780762 -0.36696341882149375 0.4740566958983739 -0.7021923661231995
-17.805034637451172 4.263119220733643 -7.571490287780762 -0.31355762481689453 0.5109533766905466 -0.7021927386522293
-17.329072952270508 4.515458106994629 -7.571490287780762 -0.25647570192813873 0.5418598105510075 -0.7021927187840143
-16.82862091064453 4.7148566246032715 -7.571490287780762 -0.19638700410723686 0.5664130946000416 -0.7021925151348114
-16.309541702270508 4.858977794647217 -7.571490287780762 -0.13399576085309187 0.5843260288238525 -0.702192688981692
-15.777925491333008 4.946132183074951 -7.571490287780762 -0.070033498108387 0.5953880498806635 -0.7021927883227665
3 0 1 2
3 0 2 3
3 2 4 3
3 3 4 5
3 6 7 8
3 7 9 10
3 7 10 8
3 10 11 8
3 8 11 12
3 11 13 12
3 12 13 14
3 13 15 14
3 14 15 16
3 15 17 16
3 16 17 18
3 17 19 18
3 18 19 20
3 19 21 20
3 20 21 22
3 21 23 22
3 22 23 24
3 23 25 24
3 24 25 26
3 25 27 26
3 26 27 28
3 27 29 28
3 28 29 30
3 29 31 30
3 30 31 32
3 31 33 32
3 32 33 34
3 33 35 34
3 34 35 36
3 35 37 36
3 36 37 38
3 37 39 38
3 38 39 40
3 39 41 40
3 40 41 42
3 41 43 42
3 42 43 44
3 43 45 44
3 44 45 46
3 45 47 46
3 46 47 48
3 47 49 48
3 48 49 50
3 49 51 50
3 50 51 52
3 51 53 52
3 52 53 54
3 53 55 54
3 54 55 56
3 55 57 56
3 56 57 58
3 57 59 58
3 58 59 60
3 59 61 60
3 60 61 62
3 61 63 62
3 62 63 64
3 63 0 64
3 64 0 3
3 6 8 65
3 8 12 65
3 65 12 66
3 12 14 66
3 66 14 67
3 14 16 67
3 67 16 68
3 16 18 68
3 68 18 69
3 18 20 69
3 69 20 70
3 20 22 70
3 70 22 71
3 22 24 71
3 71 24 72
3 24 26 72
3 72 26 73
3 26 28 73
3 73 28 74
3 28 30 74
3 74 30 75
3 30 32 75
3 75 32 76
3 32 34 76
3 76 34 77
3 34 36 77
3 77 36 78
3 36 38 78
3 78 38 79
3 38 40 79
3 79 40 80
3 40 42 80
3 80 42 81
3 42 44 81
3 81 44 82
3 44 46 82
3 82 46 83
3 46 48 83
3 83 48 84
3 48 50 84
3 84 50 85
3 50 52 85
3 85 52 86
3 52 54 86
3 86 54 87
3 54 56 87
3 87 56 88
3 56 58 88
3 88 58 89
3 58 60 89
3 89 60 90
3 60 62 90
3 90 62 91
3 62 64 91
3 91 64 92
3 64 3 92
3 92 3 5
3 93 9 7
3 93 7 94
3 7 6 94
3 94 6 95
3 96 97 98
3 96 98 99
3 98 100 99
3 99 100 101
3 102 103 104
3 102 104 105
3 104 106 105
3 105 106 107
3 108 109 110
3 109 111 110
3 97 96 103
3 112 113 114
3 115 116 117
3 115 117 114
3 117 118 114
3 114 118 112
3 103 102 97
3 102 117 97
3 97 117 119
3 117 120 119
3 113 121 114
3 121 122 114
3 114 122 123
3 116 124 117
3 124 125 117
3 117 125 126
3 127 114 128
3 114 129 128
3 123 130 114
3 130 131 114
3 114 131 129
3 132 133 127
3 133 134 127
3 127 134 114
3 132 135 133
3 135 136 133
3 133 136 137
3 126 138 117
3 138 139 117
3 117 139 120
3 107 140 141
3 107 141 142
3 141 143 142
3 142 143 144
3 143 145 144
3 144 145 146
3 145 147 146
3 146 147 148
3 147 149 148
3 148 149 150
3 149 151 150
3 150 151 152
3 151 153 152
3 152 153 154
3 153 155 154
3 154 155 156
3 155 157 156
3 156 157 158
3 157 159 158
3 158 159 160
3 159 161 160
3 160 161 162
3 161 163 162
3 162 163 164
3 163 165 164
3 164 165 166
3 165 167 166
3 166 167 168
3 167 169 168
3 168 169 170
3 169 171 170
3 170 171 172
3 171 173 172
3 172 173 174
3 173 175 174
3 174 175 176
3 175 177 176
3 176 177 178
3 177 179 178
3 178 179 180
3 179 181 180
3 180 181 182
3 181 183 182
3 182 183 184
3 183 185 184
3 184 185 186
3 185 187 186
3 186 187 188
3 187 189 188
3 188 189 190
3 189 191 190
3 190 191 192
3 191 193 192
3 192 193 194
3 193 195 194
3 194 195 196
3 195 197 196
3 196 197 100
3 99 101 96
3 101 110 96
3 96 110 103
3 110 111 103
3 103 111 104
3 111 106 104
3 94 95 93
3 95 109 93
3 93 109 1
3 109 108 1
3 1 108 2
3 108 4 2
3 5 198 199
3 5 199 92
3 199 200 92
3 92 200 91
3 200 201 91
3 91 201 90
3 201 202 90
3 90 202 89
3 202 203 89
3 89 203 88
3 203 204 88
3 88 204 87
3 204 205 87
3 87 205 86
3 205 206 86
3 86 206 85
3 206 207 85
3 85 207 84
3 207 208 84
3 84 208 83
3 208 209 83
3 83 209 82
3 209 210 82
3 82 210 81
3 210 211 81
3 81 211 80
3 211 212 80
3 80 212 79
3 212 213 79
3 79 213 78
3 213 214 78
3 78 214 77
3 214 215 77
3 77 215 76
3 215 216 76
3 76 216 75
3 216 217 75
3 75 217 74
3 217 218 74
3 74 218 73
3 218 219 73
3 73 219 72
3 219 220 72
3 72 220 71
3 220 221 71
3 71 221 70
3 221 222 70
3 70 222 69
3 222 223 69
3 69 223 68
3 223 224 68
3 68 224 67
3 224 225 67
3 67 225 66
3 225 226 66
3 66 226 65
3 226 227 65
3 65 227 6
3 95 6 109
3 6 227 109
3 109 227 111
3 227 140 111
3 111 140 106
3 140 107 106
3 101 100 110
3 100 197 110
3 110 197 108
3 197 198 108
3 108 198 4
3 198 5 4
3 100 98 228
3 98 97 119
3 98 119 228
3 119 120 228
3 228 120 229
3 120 139 229
3 229 139 230
3 139 138 230
3 230 138 231
3 138 126 231
3 231 126 232
3 126 125 232
3 232 125 233
3 125 124 233
3 233 124 234
3 124 116 234
3 234 116 235
3 116 115 235
3 235 115 236
3 115 114 236
3 236 114 237
3 114 134 237
3 237 134 238
3 134 133 238
3 238 133 239
3 133 137 239
3 239 137 240
3 137 136 240
3 240 136 241
3 136 135 241
3 241 135 242
3 135 132 242
3 242 132 243
3 132 127 243
3 243 127 244
3 127 128 244
3 244 128 245
3 128 129 245
3 245 129 246
3 129 131 246
3 246 131 247
3 131 130 247
3 247 130 248
3 130 123 248
3 248 123 249
3 123 122 249
3 249 122 250
3 122 121 250
3 250 121 251
3 121 113 251
3 251 113 252
3 113 112 252
3 252 112 253
3 112 118 253
3 253 118 254
3 118 117 254
3 254 117 255
3 117 102 255
3 255 102 105
3 100 228 196
3 228 229 196
3 196 229 194
3 229 230 194
3 194 230 192
3 230 231 192
3 192 231 190
3 231 232 190
3 190 232 188
3 232 233 188
3 188 233 186
3 233 234 186
3 186 234 184
3 234 235 184
3 184 235 182
3 235 236 182
3 182 236 180
3 236 237 180
3 180 237 178
3 237 238 178
3 178 238 176
3 238 239 176
3 176 239 174
3 239 240 174
3 174 240 172
3 240 241 172
3 172 241 170
3 241 242 170
3 170 242 168
3 242 243 168
3 168 243 166
3 243 244 166
3 166 244 164
3 244 245 164
3 164 245 162
3 245 246 162
3 162 246 160
3 246 247 160
3 160 247 158
3 247 248 158
3 158 248 156
3 248 249 156
3 156 249 154
3 249 250 154
3 154 250 152
3 250 251 152
3 152 251 150
3 251 252 150
3 150 252 148
3 252 253 148
3 148 253 146
3 253 254 146
3 146 254 144
3 254 255 144
3 144 255 142
3 255 105 142
3 142 105 107
3 208 207 227
3 227 198 140
3 198 197 140
3 140 197 141
3 197 143 141
3 149 197 151
3 197 153 151
3 149 147 197
3 147 145 197
3 197 145 143
3 224 223 225
3 223 222 225
3 225 222 226
3 226 222 227
3 222 221 227
3 227 221 220
3 220 219 227
3 219 218 227
3 227 218 217
3 217 216 227
3 216 215 227
3 227 215 214
3 214 213 227
3 213 212 227
3 227 212 211
3 207 206 227
3 206 205 227
3 227 205 204
3 197 195 153
3 195 193 153
3 153 193 191
3 211 210 227
3 210 209 227
3 227 209 208
3 204 203 227
3 203 202 227
3 227 202 201
3 201 200 227
3 200 199 227
3 227 199 198
3 169 167 187
3 167 165 187
3 187 165 163
3 163 161 187
3 161 159 187
3 187 159 157
3 191 189 153
3 189 187 153
3 153 187 155
3 187 157 155
3 177 175 173
3 187 185 169
3 185 183 169
3 169 183 181
3 181 179 169
3 179 177 169
3 169 177 171
3 177 173 171
3 93 1 9
3 1 0 9
3 31 29 0
3 29 27 0
3 0 27 25
3 25 23 0
3 23 21 0
3 0 21 19
3 47 45 0
3 45 43 0
3 37 35 0
3 35 33 0
3 0 33 31
3 61 59 57
3 19 17 0
3 17 15 0
3 0 15 13
3 13 11 0
3 11 10 0
3 0 10 9
3 61 57 63
3 43 41 0
3 41 39 0
3 0 39 37
3 63 57 0
3 57 55 0
3 0 55 53
3 53 51 0
3 51 49 0
3 0 49 47
